<svg xmlns="http://www.w3.org/2000/svg" width="32" height="24.348" viewBox="0 0 32 24.348"><defs><style>.a{fill:#242a37;}.b{fill:#ffd428;}</style></defs><g transform="translate(-526.494 426.379)"><path class="a" d="M552.055-402.031H527.371a.971.971,0,0,1-.871-1.065,1.012,1.012,0,0,1,.038-.18l5.608-17.576a.89.89,0,0,1,.833-.729h24.682c.568,0,.833.627.833,1.244l-5.606,17.581A.89.89,0,0,1,552.055-402.031Z"/><path class="b" d="M554.955-422.722h-14.3l-2.83-3.657H527.489a.945.945,0,0,0-.98.9v22.323h.116l5.667-14.265a.876.876,0,0,1,.855-.6h22.788v-3.8A.944.944,0,0,0,554.955-422.722Z"/></g></svg>