<svg xmlns="http://www.w3.org/2000/svg" width="46" height="46" viewBox="0 0 46 46"><defs><style>.a{fill:#fff;}.b{fill:#242a37;}.c{fill:#ffd428;}</style></defs><g transform="translate(-608.543 -265)"><rect class="a" width="45" height="45" rx="2.5" transform="translate(609.043 265.5)"/><path class="b" d="M651.543,266a2,2,0,0,1,2,2v40a2,2,0,0,1-2,2h-40a2,2,0,0,1-2-2V268a2,2,0,0,1,2-2h40m0-1h-40a3,3,0,0,0-3,3v40a3,3,0,0,0,3,3h40a3,3,0,0,0,3-3V268a3,3,0,0,0-3-3Z"/><rect class="c" width="36" height="30" rx="3" transform="translate(613.543 270.167)"/><circle class="b" cx="3" cy="3" r="3" transform="translate(618.488 276.667)"/><path class="b" d="M646.488,295.667h-30l15-19.773Z"/></g></svg>