<svg xmlns="http://www.w3.org/2000/svg" width="46" height="46" viewBox="0 0 46 46"><defs><style>.a{fill:#242a37;}.b{fill:#ffd428;}</style></defs><g transform="translate(-437.772 -265)"><rect class="a" width="46" height="46" rx="3" transform="translate(437.772 265)"/><rect class="b" width="4" height="4" transform="translate(456.772 267.5)"/><rect class="a" width="4" height="4" transform="translate(456.772 271.5)"/><rect class="b" width="4" height="4" transform="translate(456.772 275.5)"/><rect class="a" width="4" height="4" transform="translate(456.772 279.5)"/><rect class="b" width="4" height="4" transform="translate(456.772 283.5)"/><rect class="a" width="4" height="4" transform="translate(460.772 267.5)"/><rect class="b" width="4" height="4" transform="translate(460.772 271.5)"/><rect class="a" width="4" height="4" transform="translate(460.772 275.5)"/><rect class="b" width="4" height="4" transform="translate(460.772 279.5)"/><rect class="a" width="4" height="4" transform="translate(460.772 283.5)"/><path class="b" d="M460.772,290h-4v10h8V290Z"/><rect class="a" width="3" height="1.5" transform="translate(459.272 294)"/><path class="a" d="M480.772,266a2,2,0,0,1,2,2v40a2,2,0,0,1-2,2h-40a2,2,0,0,1-2-2V268a2,2,0,0,1,2-2h40m0-1h-40a3,3,0,0,0-3,3v40a3,3,0,0,0,3,3h40a3,3,0,0,0,3-3V268a3,3,0,0,0-3-3Z"/></g></svg>