<svg xmlns="http://www.w3.org/2000/svg" width="46" height="46" viewBox="0 0 46 46"><defs><style>.a{fill:#fff;}.b{fill:#242a37;}.c{fill:#ffd428;}</style></defs><g transform="translate(-267 -265)"><rect class="a" width="45" height="45" rx="2.5" transform="translate(267.5 265.5)"/><path class="b" d="M310,266a2,2,0,0,1,2,2v40a2,2,0,0,1-2,2H270a2,2,0,0,1-2-2V268a2,2,0,0,1,2-2h40m0-1H270a3,3,0,0,0-3,3v40a3,3,0,0,0,3,3h40a3,3,0,0,0,3-3V268a3,3,0,0,0-3-3Z"/><rect class="c" width="36" height="30" rx="3" transform="translate(272 270.167)"/><rect class="b" width="26" height="4" rx="2" transform="translate(277 291.167)"/><rect class="b" width="26" height="4" rx="2" transform="translate(277 283.167)"/><rect class="b" width="26" height="4" rx="2" transform="translate(277 275.167)"/></g></svg>